<svg
  width="64"
  height="64"
  viewBox="0 0 64 64"
  fill="none"
  xmlns="http://www.w3.org/2000/svg"
>
  <defs>
    <linearGradient id="greenGradient" x1="0" y1="0" x2="1" y2="1">
      <stop offset="0%" stop-color="#6EEB83" />
      <stop offset="100%" stop-color="#1B9C4A" />
    </linearGradient>
  </defs>

  <rect
    x="4"
    y="4"
    width="56"
    height="56"
    rx="12"
    fill="url(#greenGradient)"
  />

  <path
    d="M32 18
       C26.5 18 22 21.6 22 26.2
       H26.8
       C26.8 24 29 22.6 32 22.6
       C35 22.6 37.2 24.1 37.2 26.6
       C37.2 28.7 35.6 29.8 33.7 30.9
       C31.2 32.3 29.5 33.9 29.5 37
       V38.5
       H34.5
       V37.4
       C34.5 35.6 36 34.7 38.1 33.5
       C40.5 32.1 42 30.1 42 26.9
       C42 21.9 37.4 18 32 18
       Z"
    fill="white"
  />

  <circle cx="32" cy="45" r="3" fill="white" />
</svg>
